<?xml version="1.0" encoding="UTF-8" standalone="no"?>
<!DOCTYPE svg PUBLIC "-//W3C//DTD SVG 1.1//EN" "http://www.w3.org/Graphics/SVG/1.1/DTD/svg11.dtd">
<svg width="100%" height="100%" viewBox="0 0 16 16" version="1.1" xmlns="http://www.w3.org/2000/svg" xmlns:xlink="http://www.w3.org/1999/xlink" xml:space="preserve" xmlns:serif="http://www.serif.com/" style="fill-rule:evenodd;clip-rule:evenodd;stroke-linejoin:round;stroke-miterlimit:2;">
    <path d="M3,1L13,1C14.105,1 15,1.895 15,3L15,4L1,4L1,3C1,1.895 1.895,1 3,1ZM11,2L10,2L10,3L11,3L11,2ZM12,2L12,3L13,3L13,2L12,2ZM9,2L8,2L8,3L9,3L9,2ZM1,5L15,5L15,13C15,14.105 14.105,15 13,15L3,15C1.895,15 1,14.105 1,13L1,5Z" style="fill:rgb(31,188,255);"/>
</svg>
