<?xml version="1.0" encoding="UTF-8" standalone="no"?>
<!DOCTYPE svg PUBLIC "-//W3C//DTD SVG 1.1//EN" "http://www.w3.org/Graphics/SVG/1.1/DTD/svg11.dtd">
<svg width="100%" height="100%" viewBox="0 0 16 16" version="1.1" xmlns="http://www.w3.org/2000/svg" xmlns:xlink="http://www.w3.org/1999/xlink" xml:space="preserve" xmlns:serif="http://www.serif.com/" style="fill-rule:evenodd;clip-rule:evenodd;stroke-linejoin:round;stroke-miterlimit:2;">
    <g id="_2017-Logo.svg" serif:id="2017 Logo.svg" transform="matrix(0.00533333,0,0,0.00533333,8,8)">
        <g transform="matrix(1,0,0,1,-1500,-1500)">
            <g id="g4632" transform="matrix(1,0,0,1,-3.13327,-192.444)">
                <g id="Layer-5" serif:id="Layer 5">
                    <g id="g46321" serif:id="g4632">
                        <path id="path4593" d="M1144.64,521.383C1088.46,521.34 944.14,524.826 798.845,557.599C705.776,578.591 612.306,617.28 541.342,663.381C514.318,680.936 470.23,715.455 441.582,741.169C372.19,803.452 324.914,877.667 324.914,877.667C302.608,905.841 268.973,961.783 242.839,1028.6C208.074,1117.49 182.87,1225.2 179.2,1308.38C172.772,1454.1 195.27,1580.52 211.342,1641.6C219.998,1674.49 239.884,1738.64 276.245,1807.11C307.393,1865.76 351.7,1927.43 399.378,1976.95C429.613,2008.35 440.241,2015.67 483.18,2050.93C554.218,2109.24 627.46,2148.81 758.307,2186.95C818.471,2204.49 849.015,2206.77 894.644,2213.43C985.537,2226.72 1066.34,2228.74 1066.34,2228.74L1195.97,2232.16L1400.63,2231.95L1624.56,2230.88L1624.31,2035.49L1384.05,2035.49L1384.05,2035.32C1351.51,2035.26 1117.33,2034.85 1096.34,2035.34C1079.61,2035.74 1012.16,2031.55 934.866,2018.34C908.233,2013.78 881.259,2006.98 853.664,2000.52C780.002,1983.3 719.839,1950.9 676.236,1923.09C656.101,1910.25 643.669,1899.28 627.592,1889.63C604.288,1875.65 569.555,1841.47 538.053,1799.15C500.758,1749.04 467.669,1688.81 458.842,1655.52C458.842,1655.52 446.701,1621.54 436.887,1577.16C433.678,1562.65 429.935,1548.99 427.775,1533.08C426.606,1524.46 424.511,1510.63 423.63,1502.72C423.214,1498.99 423.485,1496.68 423.485,1496.68C420.216,1479.03 420.007,1468.19 418.977,1452.64C416.784,1419.54 416.231,1380.11 416.484,1342.94C416.756,1303.07 420.316,1268.16 426.164,1225.88C429.73,1200.1 440.587,1151.45 453.605,1111.92C471.788,1056.71 494.899,1016.43 500.628,1007.31C511.394,990.169 527.216,960.866 560.818,923.28C598.569,881.054 652.47,834.045 724.021,799.987C857.949,736.237 900.387,738.65 968.307,729.808C968.307,729.808 1070.36,718.959 1133.64,717.673C1153.05,717.279 1171.34,717.154 1186.62,717.152C1212.09,717.149 1229.2,717.487 1229.2,717.487L1622.66,717.487L1622.41,521.683L1169.2,521.683C1169.2,521.683 1160.38,521.395 1144.64,521.383L1144.64,521.383ZM1394.84,1558.1L1395.41,1839.64L1624.07,1839.64L1623.71,1558.1L1394.84,1558.1Z" style="fill:rgb(31,188,255);fill-rule:nonzero;"/>
                        <g id="path4593-5" transform="matrix(0.264583,0,0,0.264583,0,0)">
                            <path d="M6890.65,4405.37L6117.15,4406.15L5270.8,4410.19L5272.07,5420.25L5274.47,5420.25L5274.47,5383.8L6135.85,5383.8L6135.37,5149.23C6135.37,5149.23 7182.17,5151.25 7267.21,5149.23C7330.45,5147.72 7585.39,5163.55 7877.51,5213.51C7978.17,5230.72 8080.11,5256.45 8184.41,5280.83C8462.82,5345.94 8690.21,5468.4 8855.01,5573.51C8931.11,5622.04 8978.09,5663.5 9038.86,5699.96C9126.94,5752.8 9258.21,5881.97 9377.27,6041.93C9518.23,6231.31 9643.29,6458.97 9676.66,6584.77C9676.66,6584.77 9722.54,6713.2 9759.64,6880.94C9771.76,6935.78 9785.91,6987.4 9794.07,7047.56C9798.49,7080.13 9806.41,7132.41 9809.74,7162.28C9811.31,7176.39 9810.29,7185.11 9810.29,7185.11C9822.64,7251.82 9823.43,7292.78 9827.32,7351.55C9835.61,7476.69 9837.7,7625.72 9836.75,7766.18C9835.72,7916.87 9822.26,8048.84 9800.16,8208.62C9786.68,8306.04 9745.65,8489.94 9696.45,8639.34C9627.72,8848.01 9540.37,9000.25 9518.72,9034.72C9478.03,9099.5 9418.23,9210.25 9291.23,9352.3C9148.55,9511.9 8944.83,9689.57 8674.4,9818.29C8168.22,10059.2 8007.82,10050.1 7751.12,10083.5C7751.12,10083.5 7365.4,10124.5 7126.24,10129.4C7052.89,10130.9 6983.76,10131.4 6926,10131.4C6829.74,10131.4 6765.06,10130.1 6765.06,10130.1L5277.97,10130.1L5278.9,10870.2L6991.84,10870.2C6991.84,10870.2 7025.18,10871.2 7084.64,10871.3C7297,10871.4 7842.46,10858.3 8391.6,10734.4C8743.36,10655.1 9096.63,10508.8 9364.84,10334.6C9466.98,10268.3 9633.61,10137.8 9741.89,10040.6C10004.2,9805.2 10182.8,9524.7 10182.8,9524.7C10267.1,9418.22 10394.3,9206.78 10493,8954.24C10624.4,8618.3 10719.7,8211.2 10733.6,7896.81C10757.9,7346.08 10672.8,6868.24 10612.1,6637.42C10579.4,6513.09 10504.2,6270.64 10366.8,6011.87C10249.1,5790.19 10081.6,5557.08 9901.4,5369.93C9787.13,5251.24 9746.96,5223.57 9584.67,5090.34C9316.18,4869.94 9039.36,4720.39 8544.82,4576.23C8317.43,4509.94 8201.98,4501.33 8029.53,4476.13C7685.99,4425.93 7380.59,4418.29 7380.59,4418.29L6890.65,4405.37ZM5273.07,6215.97L5273.99,6952.98L6139.03,6952.98L6137.54,6215.97L5273.07,6215.97Z" style="fill:rgb(31,188,255);fill-opacity:0.99;fill-rule:nonzero;"/>
                        </g>
                        <g id="rect4653-1" transform="matrix(-1,0,0,-1,0,0)">
                            <rect x="-1624.08" y="-2683.16" width="227.774" height="493.207" style="fill:rgb(31,188,255);"/>
                        </g>
                        <rect id="rect4653" x="1394.64" y="521.683" width="227.774" height="466.757" style="fill:rgb(31,188,255);"/>
                        <rect id="rect4653-0" x="1395.41" y="1346.44" width="227.774" height="493.207" style="fill:rgb(31,188,255);"/>
                    </g>
                </g>
            </g>
        </g>
    </g>
</svg>
